<svg xmlns="http://www.w3.org/2000/svg" width="23" height="23" viewBox="0 0 23 23">
  <path id="Chart" d="M6.487,23a6.3,6.3,0,0,1-4.706-1.889A6.928,6.928,0,0,1,0,16.223V6.777A6.921,6.921,0,0,1,1.784,1.891,6.3,6.3,0,0,1,6.487,0H16.513a6.3,6.3,0,0,1,4.706,1.889A6.928,6.928,0,0,1,23,6.777v9.446a6.928,6.928,0,0,1-1.781,4.888A6.3,6.3,0,0,1,16.513,23ZM1.6,6.777v9.446c0,3.142,1.917,5.173,4.883,5.173H16.513c2.966,0,4.883-2.031,4.883-5.173V6.777c0-3.142-1.917-5.173-4.883-5.173H6.487C3.521,1.6,1.6,3.635,1.6,6.777ZM15.657,17.024l-.007-.109V13.454a.8.8,0,0,1,1.6-.109l.007.109v3.461a.8.8,0,0,1-1.6.109Zm-4.911,0-.007-.109V6.065a.8.8,0,0,1,1.6-.11l.007.11v10.85a.8.8,0,0,1-1.6.109Zm-4.992,0-.007-.109V9.576a.8.8,0,0,1,1.6-.109l.007.109v7.339a.8.8,0,0,1-1.6.109Z" fill="#225c7b"/>
</svg>
