<svg xmlns="http://www.w3.org/2000/svg" width="21" height="26" viewBox="0 0 21 26">
  <g id="Voice" transform="translate(0.166 -0.417)">
    <path id="Voice-2" data-name="Voice" d="M9.543,25.155l-.008-.133V22.289A10.583,10.583,0,0,1,0,11.7a.972.972,0,0,1,.966-.978.972.972,0,0,1,.965.978A8.624,8.624,0,0,0,10.5,20.377,8.624,8.624,0,0,0,19.069,11.7.966.966,0,1,1,21,11.7a10.583,10.583,0,0,1-9.534,10.591v2.733a.965.965,0,0,1-1.923.133Zm.795-7.715a5.722,5.722,0,0,1-5.679-5.752V5.752A5.722,5.722,0,0,1,10.338,0h.325a5.721,5.721,0,0,1,5.678,5.752v5.937a5.721,5.721,0,0,1-5.678,5.752ZM6.59,5.752v5.937a3.776,3.776,0,0,0,3.748,3.8h.325a3.776,3.776,0,0,0,3.747-3.8V5.752a3.776,3.776,0,0,0-3.747-3.8h-.325A3.776,3.776,0,0,0,6.59,5.752Z" transform="translate(-0.166 0.417)" fill="#225c7b"/>
  </g>
</svg>
