<svg id="_3_User" data-name="3 User" xmlns="http://www.w3.org/2000/svg" width="49.801" height="38.361" viewBox="0 0 49.801 38.361">
  <path id="_3_User-2" data-name="3 User" d="M9.569,31.1c0-2.631,1.311-4.486,4.01-5.671,2.484-1.094,6.184-1.625,11.31-1.625l.69,0c4.908.047,8.445.6,10.813,1.686,2.568,1.179,3.816,3,3.816,5.567a5.756,5.756,0,0,1-3.643,5.5c-2.275,1.106-5.647,1.688-10.314,1.78l-1.362.012C14.3,38.361,9.569,36.123,9.569,31.1Zm3.395,0c0,3.2,6.486,3.865,11.925,3.865,7.8,0,11.925-1.35,11.925-3.9,0-3.193-6.484-3.863-11.925-3.863C17.088,27.2,12.964,28.552,12.964,31.1Zm29.3.914a1.7,1.7,0,0,1,1.32-2c1.476-.3,2.446-.788,2.684-1.291a1.434,1.434,0,0,0,0-1.222c-.242-.507-1.218-.994-2.717-1.289a19.668,19.668,0,0,0-2.963-.428,1.7,1.7,0,0,1,.234-3.386,22.619,22.619,0,0,1,3.427.495c2.419.472,4.238,1.381,5.083,3.148a4.82,4.82,0,0,1,0,4.138c-.837,1.763-2.625,2.657-5.064,3.158a1.694,1.694,0,0,1-2-1.32ZM5.531,33.337c-2.44-.5-4.227-1.4-5.062-3.156a4.8,4.8,0,0,1,0-4.14c.784-1.649,2.421-2.55,4.566-3.04l.466-.1a23.106,23.106,0,0,1,3.474-.5,1.7,1.7,0,1,1,.234,3.386,19.683,19.683,0,0,0-2.256.283l-.753.155c-1.45.285-2.425.772-2.668,1.281a1.415,1.415,0,0,0,0,1.22c.238.5,1.206.988,2.682,1.291a1.7,1.7,0,1,1-.684,3.323ZM17.509,17.81a10.469,10.469,0,0,1,0-14.766,10.426,10.426,0,0,1,17.808,7.382A10.438,10.438,0,0,1,17.509,17.81Zm2.4-12.365a7.077,7.077,0,1,0,4.981-2.051A6.994,6.994,0,0,0,19.908,5.445ZM35.993,16.957a1.7,1.7,0,0,1,1.7-1.7,4.868,4.868,0,1,0,0-9.736,1.7,1.7,0,1,1,0-3.393,8.261,8.261,0,1,1,0,16.521A1.7,1.7,0,0,1,35.993,16.957ZM3.847,10.392a8.262,8.262,0,0,1,8.264-8.259,1.7,1.7,0,0,1,0,3.393,4.868,4.868,0,1,0,0,9.736,1.7,1.7,0,0,1,0,3.393A8.262,8.262,0,0,1,3.847,10.392Z" transform="translate(0)" fill="#fff"/>
</svg>
