<svg xmlns="http://www.w3.org/2000/svg" width="18.513" height="23.748" viewBox="0 0 18.513 23.748">
  <g id="Group_19866" data-name="Group 19866" transform="translate(0.268 0.25)">
    <path id="Path_17244" data-name="Path 17244" d="M-1563.475,186.2a1.487,1.487,0,0,1,.121-.766,1.231,1.231,0,0,1,.646-.624,1.582,1.582,0,0,1,1.255-.085,1.434,1.434,0,0,1,.923,1.114c0,.024.011.048.015.063a4.107,4.107,0,0,1,.442-.227,1.465,1.465,0,0,1,1.361.116,1.4,1.4,0,0,1,.629.9c.03.134.062.268.1.425l.388-.385c.33-.326.645-.669.992-.975a1.42,1.42,0,0,1,1.876.057,1.4,1.4,0,0,1,.442.668.153.153,0,0,0,.021.035,1.412,1.412,0,0,1,2.041.3,1.426,1.426,0,0,1,.317,1.058,1.45,1.45,0,0,1-.523.978c.133.071.26.127.374.2a1.458,1.458,0,0,1,.272,2.263c-.1.1-.206.2-.315.3.143.078.271.135.386.213a1.355,1.355,0,0,1,.333,2.065c-.372.446-.794.85-1.2,1.272-.324.341-.653.678-.974,1.023a.208.208,0,0,0-.02.153c.066.407.162.81.2,1.22a11.205,11.205,0,0,1,.042,1.379,7.983,7.983,0,0,1-.13,1.068,4.7,4.7,0,0,1-.579,1.571,4.337,4.337,0,0,1-.4.567,4.044,4.044,0,0,1-1.239,1,4.913,4.913,0,0,1-1.312.489,10.506,10.506,0,0,1-1.218.209,12.069,12.069,0,0,1-1.378.034,8.124,8.124,0,0,1-2.722-.568c-.606-.232-1.2-.5-1.789-.77-.353-.158-.7-.333-1.044-.508q-.932-.473-1.859-.957c-.41-.214-.824-.422-1.218-.662a1.68,1.68,0,0,1-.776-1.034,1.481,1.481,0,0,1,.636-1.59,3.863,3.863,0,0,1,.48-.23c-.087-.361-.192-.729-.262-1.1-.092-.5-.163-1-.232-1.5q-.1-.692-.169-1.388c-.044-.421-.074-.844-.111-1.267-.032-.369-.074-.738-.1-1.108a8.322,8.322,0,0,1-.056-1.291,1.564,1.564,0,0,1,1.1-1.392,1.5,1.5,0,0,1,1.723.709,3.387,3.387,0,0,1,.357,1.018q.216.96.426,1.922.188.852.373,1.7c0,.013.008.025.016.05.042-.036.079-.062.11-.094.169-.17.338-.339.5-.513a.14.14,0,0,0,.027-.109q-.331-1.5-.668-2.991c-.125-.557-.252-1.114-.374-1.671a7.713,7.713,0,0,1-.162-.813,1.405,1.405,0,0,1,1.163-1.538,2.1,2.1,0,0,1,.371-.04A3.026,3.026,0,0,1-1563.475,186.2Zm9.409,12.359.031,0c-.047-.461-.065-.926-.148-1.38-.125-.683-.29-1.36-.448-2.037-.18-.77-.37-1.538-.558-2.306-.152-.62-.311-1.238-.465-1.857-.243-.978-.481-1.957-.729-2.933a.625.625,0,0,0-.793-.5.672.672,0,0,0-.539.707c.036.284.107.564.169.844.176.793.356,1.586.533,2.379.069.312.137.625.2.938a.325.325,0,0,1-.091.3.376.376,0,0,1-.395.1.373.373,0,0,1-.258-.3c-.047-.218-.09-.438-.139-.656-.124-.55-.253-1.1-.376-1.651-.155-.692-.3-1.386-.46-2.078-.087-.388-.2-.771-.26-1.163a.724.724,0,0,0-1.019-.577.7.7,0,0,0-.432.725q.093.426.189.851.3,1.361.609,2.722c.129.574.262,1.147.388,1.722a.429.429,0,0,1-.057.388.373.373,0,0,1-.395.129.368.368,0,0,1-.277-.3q-.166-.716-.323-1.433c-.219-.987-.435-1.975-.655-2.962q-.227-1.018-.462-2.035a1.5,1.5,0,0,0-.13-.446.735.735,0,0,0-1.019-.253.507.507,0,0,0-.337.55,2.528,2.528,0,0,0,.051.348c.152.686.31,1.37.463,2.055.167.744.33,1.489.5,2.233.171.765.344,1.53.514,2.3a.37.37,0,0,1-.259.459.369.369,0,0,1-.47-.287q-.256-1.159-.519-2.316c-.247-1.1-.49-2.2-.745-3.293a.726.726,0,0,0-.974-.574.7.7,0,0,0-.464.765c.106.485.219.969.328,1.453q.274,1.22.547,2.44.263,1.174.524,2.348c.117.523.238,1.045.355,1.568q.245,1.091.488,2.183c.14.627.283,1.254.419,1.881a.367.367,0,0,1-.478.427c-.088-.027-.177-.054-.263-.086l-2.553-.926-1.5-.547a2,2,0,0,0-.808-.162.73.73,0,0,0-.656.458.654.654,0,0,0,.114.739,1.638,1.638,0,0,0,.393.339q.638.365,1.3.694c1.135.567,2.269,1.136,3.413,1.682a14.53,14.53,0,0,0,1.358.531,7.229,7.229,0,0,0,1.715.367,7.416,7.416,0,0,0,1.645-.011,7.751,7.751,0,0,0,1.511-.305,3.674,3.674,0,0,0,1.926-1.363,3.638,3.638,0,0,0,.5-.987A5.629,5.629,0,0,0-1554.066,198.562Zm-9.878-4.375-.033-.025a1.124,1.124,0,0,1-.091.119c-.218.221-.439.439-.656.661a.394.394,0,0,1-.418.118.4.4,0,0,1-.269-.341c-.12-.573-.245-1.145-.371-1.716q-.285-1.3-.574-2.6a2.38,2.38,0,0,0-.3-.826.744.744,0,0,0-1.084-.2.869.869,0,0,0-.315.719c0,.356.035.712.06,1.067q.042.6.1,1.194c.036.39.078.78.119,1.169.044.421.083.844.138,1.264.06.451.117.9.21,1.349.1.468.234.928.356,1.39a.12.12,0,0,0,.066.072c.439.149.882.288,1.319.443.752.267,1.5.542,2.252.815l.591.218Zm8.917-3.817a.31.31,0,0,0,.053-.032q.4-.4.8-.8.5-.5.993-1c.1-.1.205-.208.312-.308a.637.637,0,0,0,.2-.357.733.733,0,0,0-.332-.748.535.535,0,0,0-.787.006,4.4,4.4,0,0,0-.352.337c-.409.408-.816.818-1.228,1.224a.143.143,0,0,0-.039.161c.055.2.107.4.157.606C-1555.177,189.757-1555.1,190.059-1555.027,190.37Zm.623,2.516.253-.258q.492-.5.984-1c.281-.283.567-.561.845-.847a.652.652,0,0,0,.021-.931.711.711,0,0,0-1.085-.038c-.07.081-.151.152-.226.228-.38.381-.762.76-1.138,1.145a.176.176,0,0,0-.033.137c.03.153.072.3.109.455C-1554.587,192.138-1554.5,192.494-1554.4,192.886Zm.6,2.479c.226-.239.438-.465.651-.689q.564-.593,1.13-1.183a.63.63,0,0,0-.022-.959.715.715,0,0,0-.942,0c-.382.379-.761.761-1.144,1.14a.142.142,0,0,0-.043.151C-1554.052,194.332-1553.931,194.839-1553.8,195.365Zm-1.835-7.464a7.071,7.071,0,0,0,.512-.562.659.659,0,0,0-.018-.864.664.664,0,0,0-.85-.194,5.07,5.07,0,0,0-.624.521A1.487,1.487,0,0,1-1555.64,187.9Z" transform="translate(1569.037 -180.648)" fill="#4a4a4a" stroke="#4a4a4a" stroke-width="0.5" fill-rule="evenodd"/>
    <path id="Path_17245" data-name="Path 17245" d="M-932.877,50.7a.381.381,0,0,1-.381-.212.34.34,0,0,1,.037-.391c.3-.39.6-.777.9-1.165.177-.228.351-.458.532-.683a.377.377,0,0,1,.506-.089.378.378,0,0,1,.1.541c-.084.115-.172.227-.26.339l-1.184,1.515A.359.359,0,0,1-932.877,50.7Z" transform="translate(946.942 -47.044)" fill="#4a4a4a" stroke="#4a4a4a" stroke-width="0.5" fill-rule="evenodd"/>
    <path id="Path_17246" data-name="Path 17246" d="M-1247.354,11.422c-.136.01-.243-.1-.315-.241-.2-.394-.386-.792-.58-1.187-.139-.284-.285-.565-.42-.851a.38.38,0,0,1,.225-.559.382.382,0,0,1,.457.222c.183.37.362.741.542,1.112.158.326.323.648.472.978A.376.376,0,0,1-1247.354,11.422Z" transform="translate(1255.587 -8.359)" fill="#4a4a4a" stroke="#4a4a4a" stroke-width="0.5" fill-rule="evenodd"/>
    <path id="Path_17247" data-name="Path 17247" d="M-1065.54,1.468q.078-.71.156-1.421c.031-.287.062-.573.088-.86a.354.354,0,0,1,.385-.344.344.344,0,0,1,.355.371c-.013.252-.044.5-.068.754-.026.277-.052.553-.08.83s-.053.546-.09.817a.382.382,0,0,1-.424.306.376.376,0,0,1-.323-.377c0-.025,0-.05.005-.075Z" transform="translate(1076.343 1.156)" fill="#4a4a4a" stroke="#4a4a4a" stroke-width="0.5" fill-rule="evenodd"/>
  </g>
</svg>
