<svg id="Activity" xmlns="http://www.w3.org/2000/svg" width="21" height="21" viewBox="0 0 21 21">
  <path id="Activity-2" data-name="Activity" d="M5.727,21A5.5,5.5,0,0,1,0,15.276l0-.245v-8.2C0,3.393,2.179.969,5.489.858l.238,0h7.395a.761.761,0,0,1,.1,1.515l-.1.007H5.727A4.015,4.015,0,0,0,1.53,6.6l0,.236v8.2c0,2.639,1.509,4.345,3.974,4.442l.227,0h8.755a4.008,4.008,0,0,0,4.2-4.212l0-.235V7.891a.763.763,0,0,1,1.519-.1l.008.1v7.14c0,3.439-2.178,5.854-5.49,5.965l-.238,0Zm-.79-6.892-.095-.061a.76.76,0,0,1-.2-.973L4.7,12.98,7.748,9.033a.765.765,0,0,1,.982-.2l.095.063,2.869,2.247L14.2,7.917a.763.763,0,0,1,1.269.838l-.063.094-2.98,3.835a.766.766,0,0,1-.981.2l-.094-.063L8.488,10.57,5.913,13.907a.765.765,0,0,1-.976.2ZM15.562,2.71a2.719,2.719,0,1,1,2.719,2.71A2.718,2.718,0,0,1,15.562,2.71Zm1.526,0a1.193,1.193,0,1,0,1.193-1.189A1.192,1.192,0,0,0,17.089,2.71Z" fill="#4a4a4a"/>
</svg>
