<svg xmlns="http://www.w3.org/2000/svg" width="36.015" height="36" viewBox="0 0 36.015 36">
  <g id="Chat" transform="translate(0.001)">
    <path id="Chat-2" data-name="Chat" d="M9.306,32.984l-.08-.028a.03.03,0,0,1-.017-.02l-1.194-.677a1.312,1.312,0,0,0-.482-.095.813.813,0,0,0-.2.02,30.942,30.942,0,0,1-3.8,1.1L3.3,33.31l-.071,0a1.957,1.957,0,0,1-1.545-.621,2.408,2.408,0,0,1-.517-1.61l.035-.287a32.247,32.247,0,0,1,1.184-3.857.926.926,0,0,0-.076-.709L1.991,25.6A17.509,17.509,0,0,1,17.533,0H17.6A17.5,17.5,0,1,1,9.306,32.984Zm-.3-2.955c.161.077.365.187.647.345l.739.425.011,0,.5.255A15.1,15.1,0,0,0,27.05,29.131l.386-.328A15.06,15.06,0,0,0,17.584,2.441l-.491.006A15.055,15.055,0,0,0,4.159,24.479l.317.617A3.4,3.4,0,0,1,4.7,27.73a31.046,31.046,0,0,0-1.12,3.64l.164-.644.691-.181c.5-.139.969-.28,1.435-.435l.732-.252a3.579,3.579,0,0,1,.947-.128A3.821,3.821,0,0,1,9.007,30.029ZM23.359,17.5a2,2,0,1,1,2,2A2,2,0,0,1,23.359,17.5Zm-7.764,0a2,2,0,1,1,2,2A2,2,0,0,1,15.595,17.5Zm-7.764,0a2,2,0,1,1,2,2A2,2,0,0,1,7.83,17.5Z" transform="translate(0.5 0.5)" fill="#fff" stroke="#fff" stroke-width="1"/>
  </g>
</svg>
