<svg id="Delete" xmlns="http://www.w3.org/2000/svg" width="20.856" height="23.137" viewBox="0 0 20.856 23.137">
  <path id="Delete-2" data-name="Delete" d="M5.948,23.09a3.376,3.376,0,0,1-3.411-3.273L2.389,18.36l-.258-2.827-.264-3.1-.3-3.723a.861.861,0,0,1,.777-.934.851.851,0,0,1,.9.679l.034.34.284,3.491L3.866,15.9c.14,1.566.26,2.834.356,3.724a1.683,1.683,0,0,0,1.762,1.728c2.841.061,5.767.062,8.813.006a1.71,1.71,0,0,0,1.837-1.743l.147-1.449c.043-.447.089-.94.138-1.475l.31-3.559L17.6,8.57a.86.86,0,0,1,.8-.8l.116,0a.858.858,0,0,1,.778.816l-.011.238-.364,4.455-.383,4.348c-.08.868-.153,1.6-.215,2.176A3.4,3.4,0,0,1,14.827,23.1q-2.24.042-4.4.042Q8.15,23.137,5.948,23.09ZM16.317,5.772H.848A.87.87,0,0,1,.732,4.044l.116-.007H4.539a1.018,1.018,0,0,0,.96-.706L5.533,3.2,5.82,1.742A2.308,2.308,0,0,1,7.854.007L8.037,0h4.782a2.3,2.3,0,0,1,2.173,1.609l.055.187L15.323,3.2a1.024,1.024,0,0,0,.863.827l.13.008h3.692a.869.869,0,0,1,.116,1.727l-.116.008ZM13.8,4.037a2.821,2.821,0,0,1-.1-.3l-.044-.192L13.4,2.19a.6.6,0,0,0-.479-.446l-.1-.008H8.037a.608.608,0,0,0-.537.322l-.03.078L7.2,3.543a2.829,2.829,0,0,1-.144.494Z" fill="#225c7b"/>
</svg>
