<svg xmlns="http://www.w3.org/2000/svg" width="22.896" height="21.549" viewBox="0 0 22.896 21.549">
  <g id="Group_20109" data-name="Group 20109" transform="translate(-648.104 -1463.855)">
    <path id="Stroke_1" data-name="Stroke 1" d="M5.906,21.549H.838A.841.841,0,0,1,.232,21.3.8.8,0,0,1,0,20.711l.128-5a3.632,3.632,0,0,1,1.1-2.512L13.559,1.161a4.132,4.132,0,0,1,5.743,0L20.949,2.77a3.9,3.9,0,0,1,0,5.612L8.575,20.47A3.8,3.8,0,0,1,5.906,21.549ZM16.431,1.636a2.4,2.4,0,0,0-1.688.683L2.417,14.36a2.022,2.022,0,0,0-.614,1.4L1.7,19.912H5.906a2.133,2.133,0,0,0,1.347-.478l.136-.121L19.765,7.224a2.294,2.294,0,0,0,0-3.3L18.118,2.319A2.4,2.4,0,0,0,16.431,1.636Z" transform="translate(648.104 1463.855)" fill="#225c7b"/>
    <path id="Stroke_5" data-name="Stroke 5" d="M9.577,0a.828.828,0,0,1,.838.818.825.825,0,0,1-.724.811l-.114.007H.838A.828.828,0,0,1,0,.818.825.825,0,0,1,.724.007L.838,0Z" transform="translate(660.586 1483.768)" fill="#225c7b"/>
  </g>
</svg>
