<svg xmlns="http://www.w3.org/2000/svg" width="16.583" height="27.284" viewBox="0 0 16.583 27.284">
  <g id="Group_19864" data-name="Group 19864" transform="translate(0.248 0.25)">
    <path id="Path_17236" data-name="Path 17236" d="M444.292,554.088h-.879c-.005-.081-.014-.153-.014-.224,0-1.219-.006-2.439.006-3.658a.934.934,0,0,1,.154-.487c.773-1.139,1.562-2.268,2.344-3.4a11.379,11.379,0,0,0,1.9-4.729,7.89,7.89,0,0,0-.838.012c-.075.008-.172.147-.2.242a9.5,9.5,0,0,1-1.242,2.821c-.441.678-.9,1.342-1.378,2a1.725,1.725,0,0,1-1.464.733q-1.982,0-3.965,0a1.588,1.588,0,0,1-1.31-.581,14.842,14.842,0,0,1-2.594-4.43,5.848,5.848,0,0,1-.168-.59c-.032-.156-.1-.219-.263-.209-.213.013-.428,0-.642,0-.027,0-.054.007-.141.02.126.516.229,1.029.378,1.529a10.847,10.847,0,0,0,1.459,3.058c.795,1.158,1.6,2.307,2.389,3.471a1.19,1.19,0,0,1,.194.615c.018,1.256.009,2.512.009,3.791h-.894v-.293c0-1.1.006-2.2-.007-3.295a.928.928,0,0,0-.153-.483c-.763-1.124-1.547-2.232-2.309-3.357a12.141,12.141,0,0,1-1.978-5.25c-.072-.53.081-.7.613-.7.5,0,1.005.006,1.508,0a.5.5,0,0,1,.541.386c.1.328.2.658.3.986a9.027,9.027,0,0,0,1.084,2.255c.4.6.813,1.179,1.221,1.768a.922.922,0,0,0,.743.413,2.706,2.706,0,0,1-.657-2.066,2.6,2.6,0,0,1,1.037-1.844,2.667,2.667,0,0,1,3.373.1c1.1.955,1.2,2.236.3,3.792l.041.071c.2-.118.453-.191.58-.362a13.907,13.907,0,0,0,2.4-4.126c.1-.337.207-.675.314-1.011a.473.473,0,0,1,.5-.357c.54,0,1.08,0,1.62,0,.418,0,.592.206.539.619a12.368,12.368,0,0,1-2.143,5.566q-1.092,1.568-2.172,3.146a.826.826,0,0,0-.133.434C444.288,551.659,444.292,552.859,444.292,554.088Zm-5.368-9.364a1.78,1.78,0,0,0,1.8,1.779,1.786,1.786,0,0,0-.016-3.573A1.78,1.78,0,0,0,438.924,544.723Z" transform="translate(-432.671 -527.304)" fill="#4a4a4a" stroke="#4a4a4a" stroke-width="0.5" fill-rule="evenodd"/>
    <path id="Path_17237" data-name="Path 17237" d="M485.262,409.437a2.718,2.718,0,0,1,1.949-.868,2.353,2.353,0,0,1,2.457,2.786,5.389,5.389,0,0,1-1.4,2.741,14.2,14.2,0,0,1-2.72,2.384.5.5,0,0,1-.641.007,13.613,13.613,0,0,1-3.024-2.747,4.87,4.87,0,0,1-1.085-2.261,2.369,2.369,0,0,1,.855-2.42,2.475,2.475,0,0,1,2.639-.24A7.645,7.645,0,0,1,485.262,409.437Zm3.532,1.671a1.489,1.489,0,0,0-1.751-1.636,1.777,1.777,0,0,0-1.373.939.5.5,0,0,1-.438.334c-.241.005-.361-.146-.464-.338a1.738,1.738,0,0,0-1.077-.868,1.508,1.508,0,0,0-2.008,1.8,3.765,3.765,0,0,0,.411,1.114,10.245,10.245,0,0,0,3.022,3.081.229.229,0,0,0,.212,0,11.221,11.221,0,0,0,2.868-2.818A3.21,3.21,0,0,0,488.794,411.108Z" transform="translate(-477.173 -405.003)" fill="#4a4a4a" stroke="#4a4a4a" stroke-width="0.5" fill-rule="evenodd"/>
    <path id="Path_17238" data-name="Path 17238" d="M465.09,381.828l.529-.53,1.241,1.242-.558.5Z" transform="translate(-462.676 -379.78)" fill="#4a4a4a" stroke="#4a4a4a" stroke-width="0.5" fill-rule="evenodd"/>
    <path id="Path_17239" data-name="Path 17239" d="M594.317,381.24l.517.538-1.219,1.209-.49-.54Z" transform="translate(-581.176 -379.727)" fill="#4a4a4a" stroke="#4a4a4a" stroke-width="0.5" fill-rule="evenodd"/>
    <path id="Path_17240" data-name="Path 17240" d="M534.985,360.921h.86v1.752h-.86Z" transform="translate(-527.365 -360.921)" fill="#4a4a4a" stroke="#4a4a4a" stroke-width="0.5" fill-rule="evenodd"/>
    <path id="Path_17241" data-name="Path 17241" d="M440.74,444.946v.858h-1.755v-.858Z" transform="translate(-438.515 -438.688)" fill="#4a4a4a" stroke="#4a4a4a" stroke-width="0.5" fill-rule="evenodd"/>
    <path id="Path_17242" data-name="Path 17242" d="M619,444.887h1.75v.869H619Z" transform="translate(-605.121 -438.634)" fill="#4a4a4a" stroke="#4a4a4a" stroke-width="0.5" fill-rule="evenodd"/>
  </g>
</svg>
