<svg xmlns="http://www.w3.org/2000/svg" width="34.845" height="30.203" viewBox="0 0 34.845 30.203">
  <g id="Group_19870" data-name="Group 19870" transform="translate(-794.76 696.301)">
    <path id="Path_17249" data-name="Path 17249" d="M812.178-675.383a25.158,25.158,0,0,0-8.381,1.409,10.792,10.792,0,0,0-5.629,4.948c-.4.716-.774,1.449-1.157,2.176a1.184,1.184,0,0,1-1.357.714,1.175,1.175,0,0,1-.895-1.246,42.818,42.818,0,0,1,.58-8.02,13.631,13.631,0,0,1,3.253-7,12.831,12.831,0,0,1,5.544-3.376,27.986,27.986,0,0,1,7.639-1.205c.12,0,.239-.014.4-.024v-.4q0-3.811,0-7.621a1.159,1.159,0,0,1,.7-1.166,1.136,1.136,0,0,1,1.329.279c.035.034.072.065.107.1l12.88,11.888c.649.6,1.3,1.194,1.946,1.8a1.161,1.161,0,0,1,0,1.858q-7.477,6.907-14.959,13.808a1.13,1.13,0,0,1-1.3.261,1.158,1.158,0,0,1-.706-1.163q0-3.774,0-7.548Zm2.323,5.467L826.724-681.2,814.5-692.483v.5q0,2.975,0,5.95c0,.914-.435,1.339-1.359,1.357-.8.016-1.6.028-2.393.077a22.189,22.189,0,0,0-6.525,1.238,9.571,9.571,0,0,0-5.37,4.562,15.147,15.147,0,0,0-1.478,5.236c-.068.544-.112,1.09-.177,1.743.118-.128.16-.167.194-.211a13.139,13.139,0,0,1,6.866-4.541,31.1,31.1,0,0,1,9.1-1.133,1.137,1.137,0,0,1,1.137,1.17c.011.713,0,1.427,0,2.141C814.5-672.939,814.5-671.478,814.5-669.916Z" transform="translate(0 0)" fill="#225c7b" fill-rule="evenodd"/>
  </g>
</svg>
