<svg xmlns="http://www.w3.org/2000/svg" width="29.382" height="31.348" viewBox="0 0 29.382 31.348">
  <g id="Group_17106" data-name="Group 17106" transform="translate(0 0)">
    <path id="Path_17207" data-name="Path 17207" d="M220.246,546.8a14.564,14.564,0,0,1,1.884.589,5.489,5.489,0,0,1-1.018,10.239,5.377,5.377,0,0,1-5.427-1.555,1.769,1.769,0,0,1-.15-.2c-.129.073-.217.12-.3.172q-4.261,2.559-8.525,5.114c-.22.132-.263.241-.176.479a5.067,5.067,0,0,1,.146,2.98.362.362,0,0,0,.228.493q4.009,2.032,8.007,4.085c.108.055.219.106.349.169a5.5,5.5,0,0,1,4.4-2.224,5.309,5.309,0,0,1,3.529,1.254,5.508,5.508,0,1,1-8.777,2.61l-8.606-4.4a5.488,5.488,0,0,1-4.591,2.294,5.342,5.342,0,0,1-3.768-1.587,5.521,5.521,0,1,1,8.039-7.56l9.026-5.423c-.1-.46-.217-.9-.278-1.35a5.5,5.5,0,0,1,4.612-6.111c.1-.015.2-.045.294-.068Zm-.548,1.838a3.673,3.673,0,1,0,3.67,3.684A3.684,3.684,0,0,0,219.7,548.638ZM205,563.4a3.673,3.673,0,1,0-3.682,3.672A3.684,3.684,0,0,0,205,563.4Zm14.671,12.92a3.673,3.673,0,1,0-3.646-3.708A3.684,3.684,0,0,0,219.668,576.317Z" transform="translate(-195.829 -546.8)" fill="#225c7b" fill-rule="evenodd"/>
  </g>
</svg>
