<svg xmlns="http://www.w3.org/2000/svg" width="35.458" height="37.163" viewBox="0 0 35.458 37.163">
  <g id="Home" transform="translate(0.5 0.5)">
    <path id="Home-2" data-name="Home" d="M27.712,36.163H24.1a3.3,3.3,0,0,1-3.247-3.055l-.018-.254V27.684a1.148,1.148,0,0,0-.979-1.123l-.163-.018H14.852a1.148,1.148,0,0,0-1.123.977l-.018.164v5.154a1.909,1.909,0,0,1-.036.324l-.018.037-.021.125a3.283,3.283,0,0,1-3.062,2.822l-.237.016H7.09A7.085,7.085,0,0,1,0,29.473V14.448a5.376,5.376,0,0,1,1.813-3.963l11.3-9.059a6.6,6.6,0,0,1,7.907-.218l.292.218,11.042,8.808a5.441,5.441,0,0,1,2.088,3.849l.018.365V29.111A7.09,7.09,0,0,1,27.712,36.163ZM14.581,24.029H19.7a3.688,3.688,0,0,1,3.663,3.384v5.442a.789.789,0,0,0,.635.776h3.372A4.54,4.54,0,0,0,31.917,29.4l.021-.288V14.464a2.927,2.927,0,0,0-.908-2.043l-.235-.2L19.732,3.4a4.048,4.048,0,0,0-2.523-.875,4.1,4.1,0,0,0-2.265.675l-.274.2L3.643,12.259a2.806,2.806,0,0,0-1.1,1.916l-.021.29V29.111A4.546,4.546,0,0,0,6.8,33.631h3.535a.776.776,0,0,0,.8-.648l.038-.326.02-.093V27.684A3.641,3.641,0,0,1,14.581,24.029Z" transform="translate(0 0)" fill="#fff" stroke="#fff" stroke-width="1"/>
  </g>
</svg>
