<svg id="Iconly_Light-outline_Video" data-name="Iconly/Light-outline/Video" xmlns="http://www.w3.org/2000/svg" width="34.845" height="26.815" viewBox="0 0 34.845 26.815">
  <g id="Video">
    <path id="Video-2" data-name="Video" d="M7.5,26.815A7.564,7.564,0,0,1,2.073,24.78,7.153,7.153,0,0,1,0,19.519V7.3A7.153,7.153,0,0,1,2.073,2.035,7.564,7.564,0,0,1,7.5,0H18.422a7.56,7.56,0,0,1,5.424,2.035,6.988,6.988,0,0,1,2.047,4.557l4.612-1.885a3.151,3.151,0,0,1,4.331,2.672l.009.246V19.192a3.15,3.15,0,0,1-4.11,3l-.232-.083-4.611-1.885a6.991,6.991,0,0,1-2.049,4.556,7.558,7.558,0,0,1-5.422,2.037ZM2.614,7.3V19.519c0,2.888,1.872,4.682,4.885,4.682H18.422c3.012,0,4.885-1.794,4.885-4.682V18.307c0-.013,0-.027,0-.04V8.561q0-.033,0-.066V7.3c0-2.888-1.872-4.682-4.885-4.682H7.5C4.486,2.614,2.614,4.408,2.614,7.3ZM31.491,19.689a.537.537,0,0,0,.726-.375l.014-.122V7.625a.537.537,0,0,0-.621-.532l-.118.033L25.92,9.406v8Z" fill="#225c7b"/>
  </g>
</svg>
