<svg id="Iconly_Light-outline_Send" data-name="Iconly/Light-outline/Send" xmlns="http://www.w3.org/2000/svg" width="28.455" height="28.455" viewBox="0 0 28.455 28.455">
  <g id="Send" transform="translate(0)">
    <path id="Send-2" data-name="Send" d="M18.859,28.455A2.743,2.743,0,0,1,16.6,27.293l-.129-.194L10.789,17.68,1.34,11.865A2.821,2.821,0,0,1,1.8,6.834l.221-.072L24.87.114A2.845,2.845,0,0,1,25.661,0a2.816,2.816,0,0,1,2.726,3.418l-.053.2L21.557,26.444A2.8,2.8,0,0,1,18.859,28.455Zm.994-20.981a1.084,1.084,0,0,1,.648.212l.123.105a1.1,1.1,0,0,1,.11,1.425l-.105.123-7.665,7.714,5.382,8.913a.6.6,0,0,0,.522.3.609.609,0,0,0,.546-.333l.045-.112L26.236,3a.625.625,0,0,0-.1-.558.616.616,0,0,0-.49-.251.6.6,0,0,0-.063,0l-.106.021L2.636,8.863a.612.612,0,0,0-.429.455.63.63,0,0,0,.183.61l.1.072,8.937,5.5,7.654-7.7A1.09,1.09,0,0,1,19.853,7.474Z" fill="#225c7b"/>
  </g>
</svg>
