<svg id="Image_2" data-name="Image 2" xmlns="http://www.w3.org/2000/svg" width="30" height="30" viewBox="0 0 30 30">
  <path id="Image_2-2" data-name="Image 2" d="M8.5,30a8.254,8.254,0,0,1-6.166-2.476A9.069,9.069,0,0,1,0,21.125V8.875a9.065,9.065,0,0,1,2.338-6.4A8.255,8.255,0,0,1,8.5,0h13a8.254,8.254,0,0,1,6.166,2.476A9.069,9.069,0,0,1,30,8.875v12.25a9.069,9.069,0,0,1-2.334,6.4A8.257,8.257,0,0,1,21.5,30Zm0-2.255h13a6.063,6.063,0,0,0,4.558-1.8,6.873,6.873,0,0,0,1.689-4.818V19.972l-.073-.065c-.157-.144-.324-.3-.525-.494L26.1,18.4a12.72,12.72,0,0,0-2.317-1.868A2.407,2.407,0,0,0,20.5,17.4l-.188.252c-.062.088-.126.18-.194.284l-.587.932c-1.107,1.794-1.779,2.612-2.99,3.267a3.8,3.8,0,0,1-4.185-.232l-.657-.414-.552-.358a5.184,5.184,0,0,0-.759-.405c-1.006-.421-1.9.045-3.133,1.508l-2.709,3.31-.454.549A6.114,6.114,0,0,0,8.5,27.745ZM2.255,8.875v12.25a7.989,7.989,0,0,0,.54,3L4.52,22.03l.761-.94c1.92-2.377,3.679-3.4,5.982-2.439a7.083,7.083,0,0,1,1.031.541l.991.64c.99.626,1.461.717,2.184.325a4.928,4.928,0,0,0,1.782-1.891l.45-.717.306-.491a12.512,12.512,0,0,1,.711-1.031A4.633,4.633,0,0,1,24.946,14.6a14.912,14.912,0,0,1,2.8,2.253V8.875a6.861,6.861,0,0,0-1.689-4.817,6.056,6.056,0,0,0-4.556-1.8H8.5C4.706,2.255,2.255,4.853,2.255,8.875ZM6.407,10.2a3.9,3.9,0,1,1,3.9,3.9A3.906,3.906,0,0,1,6.407,10.2Zm2.255,0a1.647,1.647,0,1,0,1.647-1.648A1.649,1.649,0,0,0,8.662,10.2Z" fill="#225c7b"/>
</svg>
