<svg xmlns="http://www.w3.org/2000/svg" xmlns:xlink="http://www.w3.org/1999/xlink" width="128" height="128" viewBox="0 0 128 128">
  <defs>
    <clipPath id="clip-iPhone_13_12_Pro_12">
      <rect width="128" height="128"/>
    </clipPath>
  </defs>
  <g id="iPhone_13_12_Pro_12" data-name="iPhone 13, 12 Pro – 12" clip-path="url(#clip-iPhone_13_12_Pro_12)">
    <path id="Delete" d="M33.159,128.28c-10.656-.226-17.83-7.2-19.016-18.186L13.318,102,11.883,86.3,10.412,69.065,8.732,48.381a4.721,4.721,0,0,1,9.325-1.417l.192,1.891,1.581,19.4L21.55,88.345c.779,8.7,1.448,15.745,1.982,20.691.68,6.259,3.994,9.481,9.825,9.6,15.836.341,32.148.347,49.129.035,6.185-.116,9.551-3.309,10.243-9.683l.82-8.052c.238-2.481.494-5.223.767-8.2L96.043,72.97l2.075-25.359a4.785,4.785,0,0,1,4.447-4.431l.645.012a4.776,4.776,0,0,1,4.337,4.535l-.064,1.325L105.454,73.8l-2.133,24.156c-.448,4.824-.855,8.891-1.2,12.089-1.215,11.158-8.493,18.059-19.469,18.261q-12.485.232-24.522.233Q45.434,128.542,33.159,128.28Zm57.8-96.212H4.726a4.831,4.831,0,0,1-.645-9.6l.645-.04H25.306A5.671,5.671,0,0,0,30.66,18.5l.186-.711,1.6-8.115A12.853,12.853,0,0,1,43.786.04L44.8,0h26.66A12.835,12.835,0,0,1,83.579,8.937l.308,1.041,1.535,7.809a5.7,5.7,0,0,0,4.813,4.593l.727.046h20.579a4.828,4.828,0,0,1,.645,9.6l-.645.046Zm-14-9.643a15.632,15.632,0,0,1-.558-1.683l-.244-1.064L74.69,12.165a3.357,3.357,0,0,0-2.668-2.476l-.558-.046H44.8A3.393,3.393,0,0,0,41.81,11.43l-.169.434-1.529,7.82a15.677,15.677,0,0,1-.8,2.742Z" transform="translate(5.533 0)" fill="#225c7b"/>
  </g>
</svg>
