<svg xmlns="http://www.w3.org/2000/svg" width="322.415" height="95" viewBox="0 0 322.415 95">
  <g id="Group_20805" data-name="Group 20805" transform="translate(-254 -592)">
    <path id="Path_19" data-name="Path 19" d="M-12.22,477.627q0,22.831,0,45.661c0,.447-.014.894-.04,1.34a.317.317,0,0,1-.314.314c-.69.012-1.381.016-2.071,0a.349.349,0,0,1-.316-.319,3.883,3.883,0,0,1-.047-.605c-.006-.61,0-1.221,0-1.831q0-39.068-.017-78.137c-.006-4.027-.055-8.055-.069-12.082-.006-1.643-.1-1.531,1.508-1.532,1.5,0,1.367-.072,1.367,1.405q0,22.892,0,45.784Z" transform="translate(342.357 162.046)" fill="#fff" fill-rule="evenodd"/>
    <g id="Group_20802" data-name="Group 20802">
      <path id="Path_4" data-name="Path 4" d="M-286.581,470.413c-3.9,2.05-4.48,1.876-9.8,7.2a3.307,3.307,0,0,1-.927-.906,26.438,26.438,0,0,1-5.469-12.741,26.344,26.344,0,0,1,3.118-16.839,26.226,26.226,0,0,1,8.444-9.144,26.247,26.247,0,0,1,11.177-4.261,26.328,26.328,0,0,1,17.132,3.385c.106.061.215.117.316.184.265.177.323.36.195.616-.055.109-.126.209-.19.313q-2.843,4.552-5.686,9.1a1.83,1.83,0,0,1-.21.3c-.112.118-.242.218-.424.121-.215-.115-.434-.222-.648-.338a13.689,13.689,0,0,0-8.122-1.657,13.94,13.94,0,0,0-11.272,7.36c-2.7,4.892-2.467,9.813.3,14.628a11.2,11.2,0,0,0,1.534,2.046C-286.949,469.955-286.8,470.145-286.581,470.413Z" transform="translate(557.053 159.794)" fill="#fff" fill-rule="evenodd"/>
      <path id="Path_13" data-name="Path 13" d="M-231.951,601.736c-.334.028-.416-.188-.533-.339a14.345,14.345,0,0,0-8.755-5.335,14.23,14.23,0,0,0-6.612.318,27.755,27.755,0,0,1-9.528.823,26.193,26.193,0,0,1-10.73-3.309,25.721,25.721,0,0,1-5.806-4.411c-.114-.116-.234-.227-.341-.349a.377.377,0,0,1,.016-.543c.292-.338.572-.689.879-1.012a24.65,24.65,0,0,1,8.477-5.829.813.813,0,0,1,.975.151,13.931,13.931,0,0,0,5.3,2.662,14.673,14.673,0,0,0,3.365.467,14,14,0,0,0,6.152-1.249,11.659,11.659,0,0,0,2.521-1.469.846.846,0,0,1,1-.087,23.966,23.966,0,0,1,9.684,8.324,23.778,23.778,0,0,1,3.639,8.838A12.867,12.867,0,0,1-231.951,601.736Z" transform="translate(535.663 49.301)" fill="#fff" fill-rule="evenodd"/>
      <path id="Path_15" data-name="Path 15" d="M-218.769,733.429c.5.37.923.684,1.348,1a13.726,13.726,0,0,0,6.365,2.59,14.162,14.162,0,0,0,10.275-2.427,12.968,12.968,0,0,0,2.054-1.716.961.961,0,0,1,1.29-.187,24.111,24.111,0,0,1,6.361,4.25,18.206,18.206,0,0,1,2.246,2.405c.318.433.33.531-.033.948s-.773.836-1.176,1.24a26.232,26.232,0,0,1-13.278,7.274,26.849,26.849,0,0,1-14.181-.752,25.154,25.154,0,0,1-6.828-3.461,24.965,24.965,0,0,1-3.015-2.469c-.3-.3-.309-.388-.1-.734a20.338,20.338,0,0,1,2.222-2.9A23.5,23.5,0,0,1-218.769,733.429Z" transform="translate(500.784 -63.189)" fill="#fff" fill-rule="evenodd"/>
      <path id="Path_16" data-name="Path 16" d="M-98.844,634.637a2.007,2.007,0,0,1,.61.751,25.982,25.982,0,0,1,3.821,9.812,26.753,26.753,0,0,1-.091,9.573,27.463,27.463,0,0,1-3.558,9.144c-.293.486-.628.948-.96,1.409-.354.491-.77.515-1.225.082-.117-.112-.211-.247-.321-.367a24.919,24.919,0,0,0-8.17-6.053c-.037-.016-.077-.028-.113-.046-.374-.192-.423-.31-.177-.658a14.834,14.834,0,0,0,2.214-4.584,14.275,14.275,0,0,0-.5-9.314c-.03-.076-.074-.145-.105-.22a3.658,3.658,0,0,1-.509-1.342c.026-.528.637-.795,1.021-1.139q3.582-3.216,7.192-6.4A2.766,2.766,0,0,1-98.844,634.637Z" transform="translate(412.502 9.795)" fill="#fff" fill-rule="evenodd"/>
      <path id="Path_18" data-name="Path 18" d="M-159.713,549.021a1.085,1.085,0,0,1,.454-.676,14.371,14.371,0,0,0,3.907-7.314,9.8,9.8,0,0,0,.2-1.569c.064-1.535.109-1.341,1.487-1.348,1.749-.009,3.5,0,5.246,0q2.2,0,4.392,0c.284,0,.569,0,.853.023a.375.375,0,0,1,.377.39c.009.2.01.406,0,.609a27.086,27.086,0,0,1-2.27,9.789,29.262,29.262,0,0,1-2.073,3.861c-.382.6-.378.616.314.959a30.146,30.146,0,0,1,3.477,2.012,27.217,27.217,0,0,1,5.655,5.161,6.7,6.7,0,0,1,.43.591c.219.328.216.436-.093.728-.5.475-1.018.934-1.533,1.4q-3.043,2.723-6.092,5.44c-.143.128-.271.334-.506.271-.268-.072-.188-.325-.206-.508a24.481,24.481,0,0,0-1.411-6.153,24.29,24.29,0,0,0-6.626-9.651,23.87,23.87,0,0,0-5.418-3.7C-159.331,549.238-159.506,549.134-159.713,549.021Z" transform="translate(450.179 81.765)" fill="#fff" fill-rule="evenodd"/>
      <path id="Path_20" data-name="Path 20" d="M-253.411,671.679q2.442,0,4.884,0c.285,0,.57,0,.854.022a.4.4,0,0,1,.395.385c.023.324.025.65.027.975.01,1.587-.007,3.175.031,4.762a14.023,14.023,0,0,0,3.506,9.02c.079.093.168.177.245.272.165.2.093.372-.093.51-.131.1-.267.187-.405.271a26.044,26.044,0,0,0-7.549,7.013c-.1.131-.177.274-.275.4-.276.36-.442.369-.769,0-.38-.424-.749-.858-1.1-1.3a26.705,26.705,0,0,1-5.583-13.078,32.564,32.564,0,0,1-.223-3.9c-.031-1.505-.035-3.011-.042-4.517,0-.721.1-.831.851-.836,1.75-.01,3.5,0,5.251,0Z" transform="translate(524.589 -17.823)" fill="#fff" fill-rule="evenodd"/>
      <path id="Path_21" data-name="Path 21" d="M-219.478,509.549a7.243,7.243,0,0,1,7.219,7.349,7.281,7.281,0,0,1-7.319,7.259,7.366,7.366,0,0,1-7.288-7.417A7.377,7.377,0,0,1-219.478,509.549Z" transform="translate(500.248 103.062)" fill="#fff" fill-rule="evenodd"/>
      <path id="Path_22" data-name="Path 22" d="M-176.023,679.975a7.182,7.182,0,0,1-7.16-7.142,7.109,7.109,0,0,1,7.118-7.431,7.178,7.178,0,0,1,7.477,7.212A7.242,7.242,0,0,1-176.023,679.975Z" transform="translate(467.679 -13.141)" fill="#fff" fill-rule="evenodd"/>
    </g>
    <g id="Group_20804" data-name="Group 20804">
      <path id="Path_1" data-name="Path 1" d="M292.156,445.095a2.357,2.357,0,0,0-.134,1.07q-.006,9.342,0,18.683c0,.651.008,1.3-.011,1.954-.012.447-.133.57-.6.579-.976.02-1.954.013-2.93.013-1.384,0-2.768.007-4.152-.009-.61-.007-.7-.115-.727-.723-.014-.325-.006-.651-.006-.977q0-16.546,0-33.093c0-.325-.008-.652.008-.977.029-.569.15-.707.754-.711,2.32-.014,4.64,0,6.96-.017a1.158,1.158,0,0,1,1.072.651c.952,1.515,1.929,3.015,2.894,4.522q5.169,8.066,10.339,16.132c.2.306.414.6.627.9.387-.186.22-.512.22-.757q.017-6.777.01-13.555,0-3.358,0-6.716c0-.244,0-.489.019-.732a.4.4,0,0,1,.376-.406,4.9,4.9,0,0,1,.607-.036q3.175,0,6.35,0c.2,0,.407.01.609.03a.423.423,0,0,1,.395.4,6.955,6.955,0,0,1,.034.853q0,16.974.005,33.947c0,1.307-.034,1.277-1.286,1.275-1.995,0-3.99-.034-5.983.015a1.682,1.682,0,0,1-1.684-.885c-2.047-3.278-4.155-6.518-6.241-9.771q-3.491-5.446-6.982-10.893C292.552,445.638,292.388,445.424,292.156,445.095Z" transform="translate(119.656 161.709)" fill="#fff" fill-rule="evenodd"/>
      <path id="Subtraction_1" data-name="Subtraction 1" d="M20.137,36.516a1.5,1.5,0,0,1-1.3-.679c-2.7-3.52-5.461-7.084-8.131-10.53L9.291,23.483c-.161-.207-.333-.411-.516-.627-.09-.106-.183-.216-.28-.332a1.339,1.339,0,0,0-.169.845c0,.062.006.121.006.18,0,1.91,0,3.848,0,5.723v0c0,1.844,0,3.751,0,5.626,0,.175,0,.332,0,.47.007.553.01.83-.137.979s-.432.16-1.012.16H1.162c-.221,0-.454-.008-.732-.022a.394.394,0,0,1-.405-.374C0,35.861,0,35.606,0,35.359v-.007q0-.048,0-.1C0,23.947,0,12.448,0,1.328c0-.045,0-.089,0-.134C0,1.078,0,.958,0,.84.015.446.033.248.141.142S.439.018.854.018C1.8.016,2.781.012,3.648.009,4.919,0,6.233,0,7.541,0c1.99,0,3.626.011,5.151.035a16.335,16.335,0,0,1,4.815.653,11.144,11.144,0,0,1,5.006,3.125,8.586,8.586,0,0,1,1.352,2.031,10,10,0,0,1,.761,2.3,13.093,13.093,0,0,1-.147,6.035,10.184,10.184,0,0,1-2.066,4.039,10.749,10.749,0,0,1-3.633,2.713c-.176.083-.356.165-.531.244h0c-.152.069-.308.14-.462.212-.02.009-.035.028-.071.072s-.059.071-.111.13l.95,1.145.024.029c.631.761,1.283,1.548,1.925,2.319l3.271,3.924c1.714,2.056,3.486,4.181,5.239,6.286.231.277.454.57.663.869a.155.155,0,0,1,.025.143.236.236,0,0,1-.155.135,1.624,1.624,0,0,1-.479.059H24.387c-1.159,0-2.687,0-4.232.013Zm-11.8-25.1q0,1.127,0,2.254,0,1,0,2.008c0,.311.142.482.412.493.416.018.785.027,1.127.027a11.4,11.4,0,0,0,3.454-.456,3.644,3.644,0,0,0,2.387-2.262,5.46,5.46,0,0,0,.345-2.508,3.97,3.97,0,0,0-3.341-3.94,16.018,16.018,0,0,0-3.44-.283H8.965c-.538,0-.626.093-.631.645-.008.959-.007,1.933-.005,2.876,0,.374,0,.761,0,1.144Z" transform="translate(492.014 592.594)" fill="#fff" stroke="rgba(0,0,0,0)" stroke-width="1"/>
      <path id="Path_7" data-name="Path 7" d="M492.22,428.546a18.318,18.318,0,0,1,18.044,14.742,21.014,21.014,0,0,1-1.125,11.96,17.312,17.312,0,0,1-3.7,5.546c-.282.287-.429.278-.668-.073a15.729,15.729,0,0,0-5.431-4.989c-.288-.175-.314-.307-.131-.591.22-.342.466-.668.675-1.016a13.823,13.823,0,0,0,.233-12.981,8.059,8.059,0,0,0-7.523-4.522,10.31,10.31,0,0,0-3.135.363,7.8,7.8,0,0,0-4.036,2.8,11.659,11.659,0,0,0-2.364,6.548,15.781,15.781,0,0,0,.541,5.425,9.434,9.434,0,0,0,1.728,3.333c.32.389.3.518-.121.753a16.022,16.022,0,0,0-3.937,3.246,14.888,14.888,0,0,0-1.4,1.846c-.175.261-.369.276-.6.05a16.775,16.775,0,0,1-3.11-4.2A20.016,20.016,0,0,1,474,445.935a17.721,17.721,0,0,1,3.4-9.632,18.268,18.268,0,0,1,10.752-7.322A15.881,15.881,0,0,1,492.22,428.546Z" transform="translate(-22.283 163.461)" fill="#fff" fill-rule="evenodd"/>
      <path id="Path_9" data-name="Path 9" d="M183.347,449.06q0-8.362,0-16.723c0-1.49-.094-1.421,1.363-1.421l18.188,0c1.326,0,1.277-.054,1.276,1.258q0,2.441,0,4.883c0,.244,0,.489-.011.732-.025.4-.134.524-.5.546-.325.019-.651.013-.976.013q-4.883,0-9.765,0c-1.207,0-1.212.009-1.215,1.2,0,1.749-.006,3.5.006,5.249,0,.559.1.642.631.666.284.013.569.005.854.005h9.033c.325,0,.651.005.976.011a.445.445,0,0,1,.485.435,2.164,2.164,0,0,1,.015.243c0,1.994.008,3.988,0,5.981,0,.587-.1.655-.748.673-.285.008-.57,0-.854,0q-4.517,0-9.033,0c-.325,0-.651,0-.975.024a.376.376,0,0,0-.369.4c-.012.244-.017.488-.018.732q0,2.441,0,4.882c0,.244.009.488.022.732a.4.4,0,0,0,.375.407c.364.032.731.032,1.1.032q4.822,0,9.643,0c1.429,0,1.327-.039,1.329,1.327q0,2.38,0,4.761c0,.285,0,.57-.018.854a.438.438,0,0,1-.477.44c-.244.008-.488.013-.732.013h-18.31c-.2,0-.408,0-.61-.007-.543-.033-.653-.135-.675-.644-.014-.325-.006-.651-.006-.976q0-8.362,0-16.723Z" transform="translate(194.396 161.691)" fill="#fff" fill-rule="evenodd"/>
      <path id="Path_11" data-name="Path 11" d="M75.1,466.267a22.114,22.114,0,0,1-8.695-1.5,23.4,23.4,0,0,1-4.606-2.488c-1.289-.919-1.046-.755-.383-1.892.921-1.581,1.865-3.149,2.8-4.721.145-.245.286-.493.443-.73.261-.4.394-.433.771-.117a20.406,20.406,0,0,0,4.713,2.783,9.438,9.438,0,0,0,4.242.97,8.415,8.415,0,0,0,2.507-.465,3.008,3.008,0,0,0,1.975-1.856,2.915,2.915,0,0,0-.992-3.49,14.653,14.653,0,0,0-2.811-1.706q-1.815-.869-3.632-1.733a18.885,18.885,0,0,1-3.242-1.934,13.579,13.579,0,0,1-1.63-1.468c-4.208-4.389-2.729-10.61.289-13.56a12.533,12.533,0,0,1,9.194-3.822,21.736,21.736,0,0,1,9.166,2.224,2.7,2.7,0,0,1,.324.17c2.021,1.317,1.79.7.83,2.682-.639,1.317-1.317,2.615-1.979,3.921-.11.218-.217.438-.338.65-.213.373-.334.427-.666.211A17.264,17.264,0,0,0,80.4,437a13.926,13.926,0,0,0-3.06-.8,6.688,6.688,0,0,0-3.014.265,3.409,3.409,0,0,0-1.515.988A2.7,2.7,0,0,0,73,441.09a12.55,12.55,0,0,0,1.721,1.151,49.956,49.956,0,0,0,4.745,2.229,18.25,18.25,0,0,1,6.568,4.546,8.119,8.119,0,0,1,1.954,3.607,8.538,8.538,0,0,1,.194,1.322,12.694,12.694,0,0,1-.435,4.346,9.867,9.867,0,0,1-5.991,6.639A16.719,16.719,0,0,1,75.1,466.267Z" transform="translate(285.713 163.462)" fill="#fff" fill-rule="evenodd"/>
      <path id="Path_17" data-name="Path 17" d="M435.354,449.168q0,8.418,0,16.836c0,1.423.151,1.406-1.378,1.4-1.871,0-3.741,0-5.612,0-.244,0-.488,0-.732-.009-.509-.029-.6-.132-.631-.68-.011-.2-.005-.406-.005-.61q0-16.9,0-33.793c0-1.5-.044-1.409,1.383-1.409q2.806,0,5.612,0c.285,0,.57,0,.853.017.358.027.479.163.5.555.016.365.011.732.011,1.1q0,8.3,0,16.592Z" transform="translate(12.732 161.697)" fill="#fff" fill-rule="evenodd"/>
      <path id="Path_24" data-name="Path 24" d="M512,547.981a20.72,20.72,0,0,1-8.909-2.061,17.324,17.324,0,0,1-2.842-1.883c-.406-.335-.424-.477-.124-.926a14.188,14.188,0,0,1,4.939-4.622,1,1,0,0,1,1.22.063,8.965,8.965,0,0,0,5.511,1.633,8.769,8.769,0,0,0,5.48-1.719.716.716,0,0,1,.88-.1,13.37,13.37,0,0,1,5.157,4.723c.241.378.208.473-.182.807a15.844,15.844,0,0,1-7.495,3.6C514.326,547.741,512.99,547.852,512,547.981Z" transform="translate(-41.643 81.655)" fill="#fff" fill-rule="evenodd"/>
      <path id="Path_25" data-name="Path 25" d="M530.281,505.847a5.116,5.116,0,0,1-5.154-5.269,5.182,5.182,0,0,1,10.362.143C535.552,503.171,533.194,506.062,530.281,505.847Z" transform="translate(-60.436 113.512)" fill="#fff" fill-rule="evenodd"/>
    </g>
    <g id="Group_20803" data-name="Group 20803">
      <path id="Path_2" data-name="Path 2" d="M521.143,677.119v-1.431q0-9.34,0-18.68c0-.2,0-.407,0-.611-.021-1.462.106-1.342,1.35-1.343q2.93,0,5.86,0c.244,0,.489,0,.732.015.364.028.469.146.49.55.015.284.01.57.01.854q0,16.787,0,33.575c0,.285.006.57-.009.854-.024.444-.128.558-.61.561-1.913.012-3.826.021-5.738,0-.683-.007-1.472.25-2.023-.15a5.551,5.551,0,0,1-1.11-1.583q-6.093-9.5-12.184-19a4.527,4.527,0,0,0-1.068-1.4,3.389,3.389,0,0,0-.1,1.265q-.006,7.448,0,14.9,0,2.32,0,4.639c0,.285,0,.57-.019.854a.443.443,0,0,1-.444.474c-.122.007-.244.014-.366.014q-3.358,0-6.715,0a4.5,4.5,0,0,1-.486-.031.327.327,0,0,1-.31-.316c-.025-.283-.037-.568-.037-.852q0-17.032,0-34.063c0-.244.007-.488.019-.732a.383.383,0,0,1,.372-.4,5.821,5.821,0,0,1,.609-.026c2.157,0,4.314.017,6.471-.013a1.415,1.415,0,0,1,1.39.735c3.044,4.812,6.123,9.6,9.194,14.4q2.04,3.185,4.091,6.364A1.027,1.027,0,0,0,521.143,677.119Z" transform="translate(-40.48 -5.419)" fill="#fff" fill-rule="evenodd"/>
      <path id="Path_3" data-name="Path 3" d="M377.855,677.271a6.907,6.907,0,0,0,.2-2.01q0-9.522,0-19.043c0-.2-.011-.407,0-.61.015-.468.09-.56.591-.562q3.6-.012,7.2,0c.473,0,.567.115.588.577.015.325.009.651.009.976q0,16.663,0,33.326c0,1.642.122,1.528-1.5,1.529-1.994,0-3.989-.034-5.981.018a1.491,1.491,0,0,1-1.456-.825c-2.02-3.2-4.073-6.373-6.113-9.558q-3.587-5.6-7.175-11.2c-.143-.222-.231-.512-.614-.649a6.88,6.88,0,0,0-.044,1.236q0,9.46,0,18.921c0,.285,0,.57,0,.855,0,1.279.013,1.2-1.2,1.2q-2.991,0-5.981,0c-.284,0-.569-.009-.852-.033a.324.324,0,0,1-.305-.319c-.023-.283-.035-.568-.035-.851q0-17.029,0-34.058c0-.244.006-.488.019-.732a.382.382,0,0,1,.373-.4c.2-.02.406-.028.609-.028,2.156,0,4.314.029,6.469-.019a1.507,1.507,0,0,1,1.459.836c2.393,3.779,4.815,7.54,7.23,11.305q3.03,4.724,6.065,9.444C377.509,676.772,377.624,676.932,377.855,677.271Z" transform="translate(66.278 -5.402)" fill="#fff" fill-rule="evenodd"/>
      <path id="Path_6" data-name="Path 6" d="M75.471,676.531c-.02.433-.053.822-.054,1.212q-.006,6.1,0,12.208c0,.285.007.57,0,.855-.02.634-.06.689-.72.691q-3.479.012-6.959,0c-.544,0-.622-.1-.644-.644-.013-.325-.006-.651-.006-.977q0-16.6,0-33.206c0-1.774-.2-1.568,1.547-1.579,1.79-.011,3.581,0,5.372,0,.244,0,.489-.005.732,0,.57.024.649.1.669.623.013.325.007.651.007.977q0,5.677,0,11.354v1.308c.462.148.565-.2.724-.391q2.918-3.445,5.812-6.909,2.587-3.083,5.174-6.168c.13-.156.272-.3.4-.461a.883.883,0,0,1,.746-.336c.448.005.9,0,1.343,0q3.541,0,7.081,0a6.2,6.2,0,0,1,.847.052.173.173,0,0,1,.1.281A5.528,5.528,0,0,1,97.2,656q-4.068,4.786-8.139,9.569-2.608,3.064-5.22,6.126c-.026.031-.052.062-.078.094-.4.5-.4.574-.006,1.033.506.584,1.023,1.159,1.535,1.738q6.7,7.588,13.41,15.174c.3.336.612.654.907.99.156.177.414.358.341.6-.09.3-.413.154-.634.172-.283.023-.569.006-.854.006-2.849,0-5.7-.026-8.545.016a2.189,2.189,0,0,1-1.9-.816c-1.727-2.053-3.5-4.064-5.262-6.09q-3.238-3.729-6.482-7.454A1.426,1.426,0,0,0,75.471,676.531Z" transform="translate(281.082 -5.448)" fill="#fff" fill-rule="evenodd"/>
      <path id="Path_8" data-name="Path 8" d="M202.532,685.094c-.366-.042-.543-.34-.758-.568a17.682,17.682,0,0,1-4.238-7.455,20.988,20.988,0,0,1-.208-10.73,19.125,19.125,0,0,1,9.9-12.22,17.572,17.572,0,0,1,7.409-1.764,17.073,17.073,0,0,1,8.715,1.911,18.172,18.172,0,0,1,9.9,13.963,20.314,20.314,0,0,1-.787,9.514,18.746,18.746,0,0,1-3.326,5.918,5.719,5.719,0,0,1-.6.608.328.328,0,0,1-.521-.062c-.077-.094-.144-.2-.213-.3a15.2,15.2,0,0,0-4.871-4.532c-.175-.1-.348-.21-.518-.321a.339.339,0,0,1-.1-.519c.126-.208.255-.416.381-.625a12.338,12.338,0,0,0,1.707-6.152,13.479,13.479,0,0,0-1.021-5.836,11.905,11.905,0,0,0-1.063-1.916,7.585,7.585,0,0,0-4.918-3.336,10.268,10.268,0,0,0-5.534.289,7.5,7.5,0,0,0-3.745,2.806,12.288,12.288,0,0,0-2.168,5.494,15.453,15.453,0,0,0,.544,6.62,7.565,7.565,0,0,0,1.308,2.6c.66.829.544.813-.274,1.349a15.253,15.253,0,0,0-2.336,1.953,14.547,14.547,0,0,0-2.014,2.443A2.371,2.371,0,0,1,202.532,685.094Z" transform="translate(184.415 -3.414)" fill="#fff" fill-rule="evenodd"/>
      <path id="Path_10" data-name="Path 10" d="M641.424,673.214q0-8.364,0-16.727c0-1.485-.134-1.4,1.37-1.4q9.1,0,18.192,0c1.427,0,1.393-.05,1.389,1.415-.005,1.546,0,3.093,0,4.64,0,.244,0,.489-.014.732-.028.382-.157.526-.51.55-.324.022-.651.016-.976.016l-9.646,0c-.326,0-.651,0-.976.015a.385.385,0,0,0-.406.364,3.014,3.014,0,0,0-.027.365q0,2.747,0,5.494c0,.082,0,.163.008.244.037.484.124.583.57.6.325.015.651.008.977.009q4.64,0,9.279,0c1.12,0,1.127.012,1.132,1.169.007,1.669,0,3.337,0,5.006,0,.284-.02.568-.048.851a.332.332,0,0,1-.311.317c-.364.028-.731.041-1.1.041-3.134,0-6.268,0-9.4,0-1.093,0-1.1.011-1.108,1.066-.009,1.71,0,3.419,0,5.128a5.707,5.707,0,0,0,.046.729.332.332,0,0,0,.317.31c.324.02.65.025.975.026q5.067,0,10.134,0c1.07,0,1.078.009,1.082,1.078.007,1.709,0,3.418,0,5.128,0,.2,0,.407-.015.61a.457.457,0,0,1-.446.482c-.284.02-.57.017-.854.017l-18.437,0c-1.229,0-1.2.057-1.2-1.2q0-8.547,0-17.093Z" transform="translate(-147.146 -5.453)" fill="#fff" fill-rule="evenodd"/>
      <path id="Path_12" data-name="Path 12" d="M761.966,684.93c0,1.22.009,2.44,0,3.66-.005.476-.073.575-.531.678a27.829,27.829,0,0,1-2.864.566,21.166,21.166,0,0,1-11-1.291,19.549,19.549,0,0,1-11.117-11.335,16.4,16.4,0,0,1,.35-12.825c2.986-6.735,8.3-10.56,15.474-11.85a20.783,20.783,0,0,1,8.817.457c.849.214.872.233.875,1.038.009,2.278,0,4.555,0,6.833a2.889,2.889,0,0,1-.031.486.288.288,0,0,1-.342.257,2.662,2.662,0,0,1-.585-.16,13.063,13.063,0,0,0-5.856-.864,12.011,12.011,0,0,0-5.666,1.686,10.284,10.284,0,0,0-4.929,7.866,9.808,9.808,0,0,0,1.639,6.706,10.011,10.011,0,0,0,5.346,4.233,13.7,13.7,0,0,0,9.2-.064c1.316-.484,1.221-.412,1.222.874q0,1.525,0,3.05Z" transform="translate(-217.149 -3.337)" fill="#fff" fill-rule="evenodd"/>
      <path id="Path_14" data-name="Path 14" d="M872.1,677.014q0-6.527,0-13.055,0-.548-.022-1.1a.378.378,0,0,0-.377-.393c-.324-.022-.65-.023-.975-.023q-2.928,0-5.856,0c-.325,0-.651,0-.976-.014a.457.457,0,0,1-.463-.463,4.134,4.134,0,0,1-.018-.487q0-2.745,0-5.49c0-.162.012-.325.025-.486a.4.4,0,0,1,.393-.385c.283-.026.569-.023.853-.023q11.529,0,23.059,0c1.4,0,1.325-.092,1.329,1.323q.007,2.379,0,4.758a7.687,7.687,0,0,1-.029.852.4.4,0,0,1-.392.391c-.325.015-.65.024-.975.025q-2.928,0-5.856,0c-.325,0-.65,0-.975.017a.363.363,0,0,0-.394.367c-.015.406-.021.813-.021,1.219q0,12.932,0,25.865c0,1.784.17,1.587-1.536,1.594q-3.05.011-6.1,0c-.622,0-.71-.085-.716-.7-.016-1.708-.01-3.416-.01-5.124q0-4.331,0-8.661Z" transform="translate(-312.66 -5.458)" fill="#fff" fill-rule="evenodd"/>
      <path id="Path_23" data-name="Path 23" d="M223.225,766.415a13.779,13.779,0,0,1,5.141-5.356.592.592,0,0,1,.772.038c.189.153.389.294.591.429a8.41,8.41,0,0,0,4.474,1.394,11.189,11.189,0,0,0,3.032-.192,7.574,7.574,0,0,0,3.565-1.757.866.866,0,0,1,1.177-.129,13.238,13.238,0,0,1,4.238,3.606c.271.353.521.724.771,1.092a.451.451,0,0,1-.066.652,16.337,16.337,0,0,1-5.242,3.268,18.7,18.7,0,0,1-4.719,1.1,21.679,21.679,0,0,1-2.667.131,17.846,17.846,0,0,1-9.327-2.762c-.442-.288-.866-.606-1.293-.917A.982.982,0,0,1,223.225,766.415Z" transform="translate(164.661 -84.176)" fill="#fff" fill-rule="evenodd"/>
      <path id="Path_26" data-name="Path 26" d="M259.256,720.529a5.094,5.094,0,1,1-5.075-5.132A5.034,5.034,0,0,1,259.256,720.529Z" transform="translate(145.392 -50.415)" fill="#fff" fill-rule="evenodd"/>
    </g>
  </g>
</svg>
